<svg width="19" height="17" viewBox="0 0 19 17" fill="none" xmlns="http://www.w3.org/2000/svg">
<path d="M8.98959 3.6024C9.20791 3.2522 9.24286 2.79697 9.04597 2.40221C8.74168 1.79213 8.00108 1.54445 7.391 1.84873C6.78092 2.15302 6.53323 2.89361 6.83752 3.5037C7.03579 3.90122 7.41907 4.14441 7.83016 4.18068L7.82623 8.13322C7.82561 8.76094 7.24571 9.22942 6.63192 9.09775L3.19057 8.35625C3.23635 8.10245 3.20488 7.83202 3.08097 7.58357C2.77668 6.97348 2.03609 6.7258 1.426 7.03009C0.81592 7.33437 0.568237 8.07497 0.872521 8.68505C1.17681 9.29513 1.9174 9.54282 2.52749 9.23853L2.54681 9.2289L7.2698 15.5397C7.84019 16.3032 8.8774 16.5512 9.73317 16.1244L17.3854 12.3077C18.2385 11.8823 18.6657 10.9073 18.4004 9.98824L16.2005 2.41898L16.2199 2.40934C16.8299 2.10505 17.0776 1.36446 16.7733 0.754372C16.4691 0.144289 15.7285 -0.103394 15.1184 0.20089C14.5083 0.505175 14.2606 1.24577 14.5649 1.85586C14.6888 2.10431 14.8859 2.29213 15.1162 2.40824L13.6382 5.6033C13.3742 6.17281 12.6511 6.3542 12.1493 5.97707L8.98959 3.6024Z" fill="url(#paint0_linear_4344_11730)"/>
<defs>
<linearGradient id="paint0_linear_4344_11730" x1="7.39108" y1="1.84863" x2="13.5594" y2="14.2159" gradientUnits="userSpaceOnUse">
<stop stop-color="#FFCFA5"/>
<stop offset="1" stop-color="#D76A0B"/>
</linearGradient>
</defs>
</svg>
