<svg width="19" height="17" viewBox="0 0 19 17" fill="none" xmlns="http://www.w3.org/2000/svg">
<path d="M8.98959 3.60192C9.20791 3.25172 9.24286 2.79648 9.04597 2.40172C8.74168 1.79164 8.00108 1.54396 7.391 1.84824C6.78092 2.15253 6.53324 2.89312 6.83752 3.50321C7.03579 3.90073 7.41907 4.14392 7.83016 4.1802L7.82623 8.13273C7.82561 8.76045 7.24571 9.22893 6.63192 9.09726L3.19057 8.35576C3.23635 8.10196 3.20488 7.83153 3.08097 7.58308C2.77668 6.973 2.03609 6.72531 1.426 7.0296C0.81592 7.33388 0.568237 8.07448 0.872521 8.68456C1.17681 9.29465 1.9174 9.54233 2.52749 9.23804L2.54681 9.22841L7.2698 15.5392C7.84019 16.3027 8.8774 16.5507 9.73317 16.1239L17.3854 12.3072C18.2385 11.8818 18.6657 10.9068 18.4004 9.98775L16.2005 2.41849L16.2199 2.40885C16.8299 2.10456 17.0776 1.36397 16.7733 0.753884C16.4691 0.1438 15.7285 -0.103883 15.1184 0.200402C14.5083 0.504687 14.2606 1.24528 14.5649 1.85537C14.6888 2.10382 14.8859 2.29164 15.1162 2.40775L13.6382 5.60281C13.3742 6.17232 12.6511 6.35371 12.1493 5.97658L8.98959 3.60192Z" fill="url(#paint0_linear_4344_11746)"/>
<defs>
<linearGradient id="paint0_linear_4344_11746" x1="7.39108" y1="1.84814" x2="13.5594" y2="14.2154" gradientUnits="userSpaceOnUse">
<stop stop-color="#98F2FF"/>
<stop offset="1" stop-color="#3BABBC"/>
</linearGradient>
</defs>
</svg>
