<svg width="23" height="23" viewBox="0 0 23 23" fill="none" xmlns="http://www.w3.org/2000/svg">
<path d="M9.98967 6.6023C10.208 6.2521 10.2429 5.79687 10.046 5.40211C9.74176 4.79202 9.00117 4.54434 8.39108 4.84863C7.781 5.15291 7.53332 5.89351 7.8376 6.50359C8.03587 6.90111 8.41915 7.1443 8.83024 7.18058L8.82631 11.1331C8.82569 11.7608 8.24579 12.2293 7.632 12.0976L4.19065 11.3561C4.23643 11.1023 4.20497 10.8319 4.08105 10.5835C3.77676 9.97338 3.03617 9.7257 2.42608 10.03C1.816 10.3343 1.56832 11.0749 1.8726 11.6849C2.17689 12.295 2.91748 12.5427 3.52757 12.2384L3.54689 12.2288L8.26988 18.5396C8.84027 19.3031 9.87748 19.5511 10.7333 19.1242L18.3855 15.3076C19.2385 14.8822 19.6658 13.9072 19.4004 12.9881L17.2006 5.41887L17.2199 5.40923C17.83 5.10495 18.0777 4.36435 17.7734 3.75427C17.4691 3.14418 16.7285 2.8965 16.1185 3.20078C15.5084 3.50507 15.2607 4.24567 15.565 4.85575C15.6889 5.1042 15.886 5.29202 16.1163 5.40814L14.6383 8.60319C14.3742 9.1727 13.6511 9.35409 13.1493 8.97696L9.98967 6.6023Z" fill="url(#paint0_linear_4344_11726)"/>
<defs>
<linearGradient id="paint0_linear_4344_11726" x1="8.39108" y1="4.84863" x2="14.5594" y2="17.2159" gradientUnits="userSpaceOnUse">
<stop stop-color="white"/>
<stop offset="1" stop-color="#ADADAD"/>
</linearGradient>
</defs>
</svg>
