<svg width="22" height="16" viewBox="0 0 22 16" fill="none" xmlns="http://www.w3.org/2000/svg">
<path d="M1.06251 8.34836C0.979165 8.12384 0.979165 7.87688 1.06251 7.65236C1.87421 5.68421 3.25202 4.0014 5.02128 2.81726C6.79053 1.63312 8.87155 1.00098 11.0005 1.00098C13.1295 1.00098 15.2105 1.63312 16.9797 2.81726C18.749 4.0014 20.1268 5.68421 20.9385 7.65236C21.0218 7.87688 21.0218 8.12384 20.9385 8.34836C20.1268 10.3165 18.749 11.9993 16.9797 13.1835C15.2105 14.3676 13.1295 14.9997 11.0005 14.9997C8.87155 14.9997 6.79053 14.3676 5.02128 13.1835C3.25202 11.9993 1.87421 10.3165 1.06251 8.34836Z" stroke="#E4E4E4" stroke-width="2" stroke-linecap="round" stroke-linejoin="round"/>
<path d="M11 11C12.6569 11 14 9.65685 14 8C14 6.34315 12.6569 5 11 5C9.34315 5 8 6.34315 8 8C8 9.65685 9.34315 11 11 11Z" stroke="#E4E4E4" stroke-width="2" stroke-linecap="round" stroke-linejoin="round"/>
</svg>
