<svg width="20" height="20" viewBox="0 0 20 20" fill="none" xmlns="http://www.w3.org/2000/svg">
<path d="M20 16.6047C20 16.8036 19.921 16.9944 19.7803 17.135C19.6397 17.2757 19.4489 17.3547 19.25 17.3547H14.15C13.983 17.9776 13.6151 18.5279 13.1034 18.9205C12.5918 19.313 11.9649 19.5257 11.32 19.5257C10.6751 19.5257 10.0482 19.313 9.53658 18.9205C9.02491 18.5279 8.65704 17.9776 8.49 17.3547H0.75C0.551088 17.3547 0.360322 17.2757 0.21967 17.135C0.0790175 16.9944 0 16.8036 0 16.6047C0 16.4058 0.0790175 16.215 0.21967 16.0744C0.360322 15.9337 0.551088 15.8547 0.75 15.8547H8.49C8.65704 15.2318 9.02491 14.6814 9.53658 14.2889C10.0482 13.8964 10.6751 13.6836 11.32 13.6836C11.9649 13.6836 12.5918 13.8964 13.1034 14.2889C13.6151 14.6814 13.983 15.2318 14.15 15.8547H19.25C19.4489 15.8547 19.6397 15.9337 19.7803 16.0744C19.921 16.215 20 16.4058 20 16.6047ZM20 3.39469C20 3.5936 19.921 3.78436 19.7803 3.92502C19.6397 4.06567 19.4489 4.14469 19.25 4.14469H16.8C16.633 4.76756 16.2651 5.31793 15.7534 5.71046C15.2418 6.10298 14.6149 6.31574 13.97 6.31574C13.3251 6.31574 12.6982 6.10298 12.1866 5.71046C11.6749 5.31793 11.307 4.76756 11.14 4.14469H0.75C0.651509 4.14469 0.553982 4.12529 0.462987 4.0876C0.371993 4.0499 0.289314 3.99466 0.21967 3.92502C0.150026 3.85537 0.0947813 3.77269 0.0570903 3.6817C0.0193993 3.5907 0 3.49318 0 3.39469C0 3.29619 0.0193993 3.19867 0.0570903 3.10767C0.0947813 3.01668 0.150026 2.934 0.21967 2.86436C0.289314 2.79471 0.371993 2.73947 0.462987 2.70178C0.553982 2.66409 0.651509 2.64469 0.75 2.64469H11.14C11.307 2.02181 11.6749 1.47144 12.1866 1.07892C12.6982 0.68639 13.3251 0.473633 13.97 0.473633C14.6149 0.473633 15.2418 0.68639 15.7534 1.07892C16.2651 1.47144 16.633 2.02181 16.8 2.64469H19.25C19.3489 2.64334 19.447 2.66182 19.5386 2.69904C19.6302 2.73625 19.7134 2.79145 19.7833 2.86136C19.8532 2.93127 19.9084 3.01449 19.9457 3.10609C19.9829 3.19769 20.0013 3.29582 20 3.39469ZM20 9.99469C20.0013 10.0935 19.9829 10.1917 19.9457 10.2833C19.9084 10.3749 19.8532 10.4581 19.7833 10.528C19.7134 10.5979 19.6302 10.6531 19.5386 10.6903C19.447 10.7276 19.3489 10.746 19.25 10.7447H7.55C7.38296 11.3676 7.01509 11.9179 6.50342 12.3105C5.99176 12.703 5.36489 12.9157 4.72 12.9157C4.07511 12.9157 3.44824 12.703 2.93658 12.3105C2.42491 11.9179 2.05704 11.3676 1.89 10.7447H0.75C0.551088 10.7447 0.360322 10.6657 0.21967 10.525C0.0790175 10.3844 0 10.1936 0 9.99469C0 9.79577 0.0790175 9.60501 0.21967 9.46436C0.360322 9.3237 0.551088 9.24469 0.75 9.24469H1.89C2.05704 8.62181 2.42491 8.07144 2.93658 7.67892C3.44824 7.28639 4.07511 7.07363 4.72 7.07363C5.36489 7.07363 5.99176 7.28639 6.50342 7.67892C7.01509 8.07144 7.38296 8.62181 7.55 9.24469H19.25C19.4489 9.24469 19.6397 9.3237 19.7803 9.46436C19.921 9.60501 20 9.79577 20 9.99469Z" fill="#8E8E8E"/>
</svg>
