<svg width="24" height="24" viewBox="0 0 24 24" fill="none" xmlns="http://www.w3.org/2000/svg">
<path d="M15.3422 8.65709C15.2016 8.51649 15.0108 8.4375 14.812 8.4375C14.6131 8.4375 14.4223 8.51649 14.2817 8.65709L8.6567 14.2821C8.58507 14.3513 8.52793 14.434 8.48862 14.5255C8.44932 14.617 8.42863 14.7155 8.42776 14.815C8.4269 14.9146 8.44587 15.0134 8.48358 15.1056C8.5213 15.1977 8.57699 15.2815 8.6474 15.3519C8.71782 15.4223 8.80156 15.478 8.89374 15.5157C8.98591 15.5534 9.08467 15.5724 9.18425 15.5715C9.28384 15.5707 9.38225 15.55 9.47375 15.5107C9.56526 15.4714 9.64802 15.4142 9.7172 15.3426L15.3422 9.71759C15.4828 9.57694 15.5618 9.38621 15.5618 9.18734C15.5618 8.98847 15.4828 8.79774 15.3422 8.65709Z" fill="#F2F2F2"/>
<path d="M12 9C12 8.55499 11.868 8.11998 11.6208 7.74997C11.3736 7.37996 11.0222 7.09157 10.611 6.92127C10.1999 6.75097 9.74751 6.70642 9.31105 6.79323C8.87459 6.88005 8.47368 7.09434 8.15901 7.40901C7.84434 7.72368 7.63005 8.12459 7.54323 8.56105C7.45642 8.99751 7.50097 9.44991 7.67127 9.86104C7.84157 10.2722 8.12996 10.6236 8.49997 10.8708C8.86998 11.118 9.30499 11.25 9.75 11.25C10.3467 11.25 10.919 11.0129 11.341 10.591C11.7629 10.169 12 9.59674 12 9ZM9 9C9 8.85167 9.04399 8.70666 9.1264 8.58332C9.20881 8.45999 9.32594 8.36386 9.46299 8.30709C9.60003 8.25033 9.75083 8.23547 9.89632 8.26441C10.0418 8.29335 10.1754 8.36478 10.2803 8.46967C10.3852 8.57456 10.4567 8.7082 10.4856 8.85368C10.5145 8.99917 10.4997 9.14997 10.4429 9.28701C10.3861 9.42406 10.29 9.54119 10.1667 9.6236C10.0433 9.70601 9.89834 9.75 9.75 9.75C9.55109 9.75 9.36032 9.67098 9.21967 9.53033C9.07902 9.38968 9 9.19891 9 9Z" fill="#F2F2F2"/>
<path d="M14.25 12.75C13.805 12.75 13.37 12.882 13 13.1292C12.63 13.3764 12.3416 13.7278 12.1713 14.139C12.001 14.5501 11.9564 15.0025 12.0432 15.439C12.1301 15.8754 12.3443 16.2763 12.659 16.591C12.9737 16.9057 13.3746 17.12 13.811 17.2068C14.2475 17.2936 14.6999 17.249 15.111 17.0787C15.5222 16.9084 15.8736 16.62 16.1208 16.25C16.368 15.88 16.5 15.445 16.5 15C16.5 14.4033 16.2629 13.831 15.841 13.409C15.419 12.9871 14.8467 12.75 14.25 12.75ZM14.25 15.75C14.1017 15.75 13.9567 15.706 13.8333 15.6236C13.71 15.5412 13.6139 15.4241 13.5571 15.287C13.5003 15.15 13.4855 14.9992 13.5144 14.8537C13.5434 14.7082 13.6148 14.5746 13.7197 14.4697C13.8246 14.3648 13.9582 14.2933 14.1037 14.2644C14.2492 14.2355 14.4 14.2503 14.537 14.3071C14.6741 14.3639 14.7912 14.46 14.8736 14.5833C14.956 14.7067 15 14.8517 15 15C15 15.1989 14.921 15.3897 14.7803 15.5303C14.6397 15.671 14.4489 15.75 14.25 15.75Z" fill="#F2F2F2"/>
<path d="M21.5456 9.87855L20.6891 9.0213C20.5493 8.8824 20.4385 8.71714 20.363 8.5351C20.2876 8.35306 20.249 8.15786 20.2496 7.9608V6.74955C20.2496 5.95391 19.9335 5.19084 19.3709 4.62823C18.8083 4.06562 18.0452 3.74955 17.2496 3.74955H16.0383C15.8413 3.75009 15.6461 3.71152 15.464 3.63607C15.282 3.56063 15.1167 3.44982 14.9778 3.31005L14.1206 2.45355C13.558 1.89114 12.795 1.5752 11.9996 1.5752C11.2041 1.5752 10.4411 1.89114 9.87855 2.45355L9.0213 3.31005C8.8824 3.44982 8.71714 3.56063 8.5351 3.63607C8.35306 3.71152 8.15786 3.75009 7.9608 3.74955H6.74955C5.95391 3.74955 5.19084 4.06562 4.62823 4.62823C4.06562 5.19084 3.74955 5.95391 3.74955 6.74955V7.9608C3.75009 8.15786 3.71152 8.35306 3.63607 8.5351C3.56063 8.71714 3.44982 8.8824 3.31005 9.0213L2.45355 9.87855C1.89114 10.4411 1.5752 11.2041 1.5752 11.9996C1.5752 12.795 1.89114 13.558 2.45355 14.1206L3.31005 14.9778C3.44982 15.1167 3.56063 15.282 3.63607 15.464C3.71152 15.6461 3.75009 15.8413 3.74955 16.0383V17.2496C3.74955 18.0452 4.06562 18.8083 4.62823 19.3709C5.19084 19.9335 5.95391 20.2496 6.74955 20.2496H7.9608C8.15786 20.249 8.35306 20.2876 8.5351 20.363C8.71714 20.4385 8.8824 20.5493 9.0213 20.6891L9.87855 21.5456C10.4411 22.108 11.2041 22.4239 11.9996 22.4239C12.795 22.4239 13.558 22.108 14.1206 21.5456L14.9778 20.6891C15.1167 20.5493 15.282 20.4385 15.464 20.363C15.6461 20.2876 15.8413 20.249 16.0383 20.2496H17.2496C18.0452 20.2496 18.8083 19.9335 19.3709 19.3709C19.9335 18.8083 20.2496 18.0452 20.2496 17.2496V16.0383C20.249 15.8413 20.2876 15.6461 20.363 15.464C20.4385 15.282 20.5493 15.1167 20.6891 14.9778L21.5456 14.1206C22.108 13.558 22.4239 12.795 22.4239 11.9996C22.4239 11.2041 22.108 10.4411 21.5456 9.87855ZM20.4851 13.0601L19.6286 13.9173C19.3489 14.195 19.1272 14.5256 18.9763 14.8896C18.8254 15.2537 18.7484 15.6442 18.7496 16.0383V17.2496C18.7496 17.6474 18.5915 18.0289 18.3102 18.3102C18.0289 18.5915 17.6474 18.7496 17.2496 18.7496H16.0383C15.6442 18.7485 15.2538 18.8257 14.8897 18.9766C14.5257 19.1275 14.1951 19.3491 13.9173 19.6286L13.0601 20.4851C12.7788 20.7663 12.3973 20.9242 11.9996 20.9242C11.6018 20.9242 11.2203 20.7663 10.9391 20.4851L10.0826 19.6286C9.8045 19.3491 9.47383 19.1276 9.10965 18.9767C8.74547 18.8258 8.355 18.7486 7.9608 18.7496H6.74955C6.35173 18.7496 5.9702 18.5915 5.68889 18.3102C5.40759 18.0289 5.24955 17.6474 5.24955 17.2496V16.0383C5.25058 15.6442 5.17342 15.2538 5.02254 14.8897C4.87165 14.5257 4.65005 14.1951 4.37055 13.9173L3.51405 13.0601C3.23285 12.7788 3.07487 12.3973 3.07487 11.9996C3.07487 11.6018 3.23285 11.2203 3.51405 10.9391L4.37055 10.0826C4.64997 9.8045 4.87152 9.47383 5.02239 9.10965C5.17326 8.74547 5.25047 8.355 5.24955 7.9608V6.74955C5.24955 6.35173 5.40759 5.9702 5.68889 5.68889C5.9702 5.40759 6.35173 5.24955 6.74955 5.24955H7.9608C8.3549 5.25058 8.74529 5.17342 9.10936 5.02254C9.47344 4.87165 9.80396 4.65005 10.0818 4.37055L10.9391 3.51405C11.2203 3.23285 11.6018 3.07487 11.9996 3.07487C12.3973 3.07487 12.7788 3.23285 13.0601 3.51405L13.9166 4.37055C14.1946 4.64997 14.5253 4.87152 14.8895 5.02239C15.2536 5.17326 15.6441 5.25047 16.0383 5.24955H17.2496C17.6474 5.24955 18.0289 5.40759 18.3102 5.68889C18.5915 5.9702 18.7496 6.35173 18.7496 6.74955V7.9608C18.7485 8.3549 18.8257 8.74529 18.9766 9.10936C19.1275 9.47344 19.3491 9.80396 19.6286 10.0818L20.4851 10.9391C20.7663 11.2203 20.9242 11.6018 20.9242 11.9996C20.9242 12.3973 20.7663 12.7788 20.4851 13.0601Z" fill="#F2F2F2"/>
</svg>
