<svg width="24" height="24" viewBox="0 0 24 24" fill="none" xmlns="http://www.w3.org/2000/svg">
<path d="M3.81336 9.69237C4.05799 7.61631 5.05152 5.70799 6.61158 4.31749C6.92067 4.04173 6.94776 3.56786 6.67237 3.25841C6.39661 2.94896 5.92274 2.92186 5.61329 3.19762C3.77637 4.83495 2.60743 7.08312 2.32251 9.52831C2.31922 9.55724 2.31738 9.58617 2.31738 9.6151V9.62279C2.31738 10.037 2.6532 10.3691 3.06738 10.3691C3.45558 10.3691 3.77491 10.0707 3.81336 9.69237Z" fill="white"/>
<path d="M21.7018 9.53416C21.4498 7.12265 20.2606 4.72902 18.404 3.14891C18.0887 2.88048 17.6152 2.91893 17.3468 3.23424C17.0784 3.54954 17.1164 4.02305 17.4321 4.29148C18.9924 5.6183 20.0018 7.58159 20.2054 9.6151C20.2054 10.0293 20.5412 10.3651 20.9554 10.3651C21.3799 10.3651 21.7466 9.96316 21.7018 9.53416Z" fill="white"/>
<path d="M20.1331 17.2218C19.2278 15.6383 18.7495 13.8369 18.7495 12.0124C18.7495 12.0124 18.7495 10.5011 18.7495 10.5C18.7495 7.58985 16.7478 4.90612 13.9736 4.05693C14.1439 3.74034 14.2495 3.38402 14.2495 3C14.2495 1.75927 13.2403 0.75 11.9995 0.75C10.7588 0.75 9.74954 1.75927 9.74954 3C9.74954 3.38425 9.85533 3.74075 10.0258 4.05748C7.25537 4.93186 5.24954 7.60927 5.24954 10.7303V12.0124C5.24954 13.8369 4.77126 15.6383 3.86563 17.2222C3.38112 18.0695 3.10209 18.9553 3.63822 19.879C4.04507 20.5811 4.77273 21 5.58426 21H8.99954C8.99954 22.6542 10.3454 24 11.9995 24C13.6537 24 14.9995 22.6542 14.9995 21H18.4148C19.2263 21 19.954 20.5811 20.3609 19.879C20.8787 18.9856 20.611 18.0588 20.1331 17.2218ZM11.9995 2.25C12.413 2.25 12.7495 2.58655 12.7495 3C12.7495 3.41345 12.413 3.75 11.9995 3.75C11.5861 3.75 11.2495 3.41345 11.2495 3C11.2495 2.58655 11.5861 2.25 11.9995 2.25ZM11.9995 22.5C11.1723 22.5 10.4995 21.8273 10.4995 21H13.4995C13.4995 21.8273 12.8268 22.5 11.9995 22.5ZM19.0638 19.1265C18.9986 19.2385 18.8048 19.5 18.4148 19.5H5.58426C5.1943 19.5 5.00057 19.2386 4.93536 19.1265C4.69822 18.7189 4.96577 18.321 5.16824 17.9659C6.20279 16.1565 6.74954 14.0977 6.74954 12.0124C6.74954 12.0124 6.74954 10.731 6.74954 10.7303C6.74954 7.89772 9.07033 5.25041 11.9911 5.25037C14.821 5.25033 17.2495 7.67938 17.2495 10.5V12.0124C17.2495 14.0976 17.7963 16.1564 18.8304 17.9655C19.0408 18.3336 19.3071 18.7044 19.0638 19.1265Z" fill="white"/>
</svg>
