<svg width="24" height="24" viewBox="0 0 24 24" fill="none" xmlns="http://www.w3.org/2000/svg">
<g clip-path="url(#clip0_3655_10107)">
<path d="M12.7158 8.21613L13.6083 8.47863C13.6779 8.49778 13.7498 8.50787 13.822 8.50863C14.0025 8.50863 14.177 8.44351 14.3134 8.32522C14.4498 8.20694 14.5389 8.04342 14.5645 7.8647C14.59 7.68598 14.5502 7.50404 14.4524 7.3523C14.3546 7.20056 14.2053 7.08918 14.032 7.03863L13.1245 6.77613C12.9336 6.71994 12.7281 6.74191 12.5533 6.8372C12.3786 6.93249 12.2488 7.0933 12.1926 7.28426C12.1364 7.47521 12.1584 7.68067 12.2537 7.85543C12.349 8.03019 12.5098 8.15994 12.7008 8.21613H12.7158Z" fill="#F2F2F2"/>
<path d="M16.0795 9.20246L16.972 9.46496C17.0413 9.48593 17.1134 9.49605 17.1858 9.49496C17.3663 9.49496 17.5408 9.42984 17.6772 9.31155C17.8135 9.19326 17.9027 9.02975 17.9282 8.85103C17.9538 8.67231 17.914 8.49037 17.8162 8.33863C17.7183 8.18688 17.5691 8.07551 17.3958 8.02496L16.4995 7.76246C16.405 7.73464 16.3059 7.72571 16.2079 7.73619C16.1098 7.74666 16.0149 7.77634 15.9283 7.82353C15.8418 7.87071 15.7654 7.93448 15.7035 8.01118C15.6416 8.08789 15.5955 8.17603 15.5676 8.27059C15.5398 8.36514 15.5309 8.46424 15.5414 8.56225C15.5518 8.66025 15.5815 8.75523 15.6287 8.84176C15.6759 8.92829 15.7397 9.00468 15.8164 9.06657C15.8931 9.12846 15.9812 9.17464 16.0758 9.20246H16.0795Z" fill="#F2F2F2"/>
<path d="M1.7623 9.19138C1.91108 9.32136 2.10513 9.38739 2.3023 9.37513C2.37552 9.37057 2.44891 9.38057 2.51823 9.40455C2.58755 9.42853 2.65144 9.46601 2.70618 9.51483C2.76093 9.56365 2.80546 9.62284 2.83719 9.68897C2.86892 9.75511 2.88723 9.82688 2.89105 9.90013C2.89476 9.97453 2.88375 10.0489 2.85866 10.1191C2.83356 10.1892 2.79487 10.2537 2.7448 10.3089C2.64811 10.4156 2.51351 10.4802 2.3698 10.4889C2.27095 10.4932 2.17393 10.517 2.08433 10.559C1.99473 10.601 1.91432 10.6603 1.84774 10.7335C1.78117 10.8067 1.72973 10.8924 1.6964 10.9856C1.66307 11.0787 1.64851 11.1776 1.65355 11.2764L2.1748 21.6939C2.20369 22.3144 2.4702 22.9 2.9191 23.3293C3.368 23.7587 3.96488 23.9989 4.58605 24.0001H4.70605L12.7011 23.5951C13.0367 23.578 13.3652 23.4912 13.6654 23.3401C13.9656 23.189 14.2311 22.977 14.4448 22.7176L14.9098 22.8526C15.1299 22.9192 15.3586 22.9533 15.5886 22.9539C16.1108 22.9524 16.6186 22.7822 17.0362 22.4686C17.4538 22.1551 17.7589 21.715 17.9061 21.2139L20.8461 11.2201C20.9017 11.0292 20.8793 10.8239 20.7837 10.6495C20.688 10.4751 20.527 10.3458 20.3361 10.2901C20.1942 10.2468 20.0752 10.1492 20.005 10.0186C19.9348 9.88793 19.919 9.73485 19.9611 9.59263C20.0036 9.45108 20.1005 9.33214 20.2305 9.26186C20.3605 9.19157 20.5131 9.17567 20.6548 9.21763C20.7497 9.246 20.8492 9.2553 20.9477 9.245C21.0462 9.2347 21.1416 9.20501 21.2286 9.15763C21.407 9.06356 21.5416 8.90339 21.6036 8.71138L22.5823 5.37763C22.6721 5.0733 22.701 4.75425 22.6673 4.43874C22.6337 4.12323 22.5383 3.81744 22.3865 3.53883C22.2346 3.26023 22.0294 3.01427 21.7824 2.81503C21.5355 2.61578 21.2517 2.46715 20.9473 2.37763L18.7873 1.74013C18.6916 1.70969 18.5907 1.6988 18.4906 1.7081C18.3906 1.7174 18.2934 1.7467 18.205 1.79427C18.1165 1.84184 18.0384 1.90671 17.9755 1.98502C17.9125 2.06332 17.866 2.15348 17.8386 2.25013C17.7638 2.50461 17.5912 2.71905 17.3586 2.84638C17.1287 2.97055 16.8592 2.99886 16.6086 2.92513C16.3541 2.85033 16.1397 2.67762 16.0124 2.4449C15.8852 2.21219 15.8555 1.93849 15.9298 1.68388C15.9577 1.58835 15.9664 1.48821 15.9552 1.3893C15.9441 1.2904 15.9133 1.1947 15.8648 1.10779C15.8163 1.02088 15.751 0.944496 15.6726 0.883091C15.5943 0.821686 15.5045 0.776488 15.4086 0.750132L13.2486 0.108882C12.9442 0.0191309 12.6252 -0.00976806 12.3097 0.0238367C11.9942 0.0574415 11.6884 0.152891 11.4098 0.304731C11.1311 0.456571 10.8852 0.661824 10.686 0.908761C10.4867 1.1557 10.3381 1.43948 10.2486 1.74388L10.0723 2.34388L9.3748 2.37763C9.17632 2.3883 8.99019 2.47732 8.8573 2.62513C8.79047 2.69838 8.73882 2.78415 8.70535 2.87748C8.67188 2.97081 8.65725 3.06986 8.6623 3.16888C8.66534 3.42799 8.5678 3.67819 8.39018 3.86687C8.21257 4.05556 7.96873 4.16804 7.70991 4.18066C7.45109 4.19329 7.19745 4.10508 7.00232 3.93457C6.80718 3.76407 6.68575 3.52456 6.66355 3.26638C6.65875 3.16785 6.63456 3.07123 6.59236 2.98207C6.55016 2.8929 6.49078 2.81293 6.41763 2.74675C6.34448 2.68056 6.25899 2.62946 6.16605 2.59636C6.07312 2.56327 5.97457 2.54883 5.87605 2.55388L3.62605 2.67013C2.98698 2.70313 2.38702 2.98804 1.95757 3.46247C1.52812 3.93691 1.30419 4.56219 1.3348 5.20138L1.4998 8.67388C1.50699 8.77325 1.53391 8.87019 1.57898 8.95905C1.62405 9.0479 1.68637 9.12688 1.7623 9.19138ZM12.8248 1.54888L14.3773 2.00263C14.3871 2.53494 14.5665 3.05023 14.8894 3.47354C15.2123 3.89685 15.6618 4.20608 16.1726 4.35626C16.6833 4.50644 17.2287 4.48972 17.7293 4.30854C18.23 4.12736 18.6597 3.79117 18.9561 3.34888L20.5048 3.80263C20.7368 3.87157 20.9322 4.02923 21.0486 4.24138C21.1067 4.34685 21.1433 4.46284 21.1562 4.58259C21.1691 4.70234 21.158 4.82346 21.1236 4.93888L20.3173 7.68763C20.0332 7.71107 19.7572 7.79412 19.5073 7.93138C19.2697 8.06058 19.06 8.2354 18.8901 8.44583C18.7202 8.65626 18.5935 8.89815 18.5173 9.15763C18.4412 9.41657 18.4169 9.68799 18.4458 9.95632C18.4748 10.2247 18.5564 10.4846 18.6861 10.7214C18.8223 10.9717 19.0087 11.1913 19.2336 11.3664L16.4698 20.7789C16.401 21.0092 16.2446 21.2033 16.0343 21.3197C15.824 21.4361 15.5765 21.4654 15.3448 21.4014L7.6648 19.1514C7.4352 19.0818 7.24193 18.9251 7.1263 18.7149C7.01068 18.5047 6.98188 18.2576 7.04605 18.0264L9.81355 8.61763C10.0976 8.59111 10.3732 8.50689 10.6236 8.37013C10.9262 8.2052 11.1825 7.96695 11.3691 7.67722C11.5557 7.38748 11.6666 7.05554 11.6916 6.71182C11.7166 6.3681 11.655 6.0236 11.5122 5.70991C11.3695 5.39621 11.1503 5.12337 10.8748 4.91638L11.6848 2.16763C11.7183 2.05172 11.7746 1.94361 11.8502 1.8496C11.9259 1.75559 12.0194 1.67753 12.1255 1.61997C12.2315 1.56241 12.348 1.52648 12.468 1.51428C12.5881 1.50208 12.7093 1.51384 12.8248 1.54888ZM3.7048 4.17388L5.3173 4.09138C5.46316 4.46864 5.69718 4.80552 5.9998 5.07388C6.44693 5.47727 7.02457 5.70581 7.62665 5.71752C8.22874 5.72923 8.81483 5.52333 9.2773 5.13763C9.24063 5.31801 9.27157 5.50558 9.36423 5.66462C9.45689 5.82366 9.6048 5.94308 9.7798 6.00013C9.88624 6.03083 9.98116 6.09248 10.0525 6.17725C10.1238 6.26201 10.1683 6.36606 10.1804 6.47618C10.1924 6.5863 10.1715 6.69752 10.1202 6.79571C10.0689 6.8939 9.98958 6.97463 9.8923 7.02763C9.76177 7.0995 9.60817 7.11701 9.4648 7.07638C9.27435 7.02054 9.06953 7.04247 8.89521 7.13736C8.72089 7.23225 8.59129 7.39237 8.5348 7.58263L5.5948 17.5876C5.41561 18.2022 5.487 18.8628 5.79337 19.425C6.09974 19.9871 6.61617 20.4051 7.2298 20.5876L12.3748 22.0876L4.63105 22.5001C4.51026 22.5057 4.38957 22.4872 4.27595 22.4458C4.16234 22.4044 4.05806 22.3409 3.96914 22.2589C3.88022 22.177 3.80842 22.0782 3.7579 21.9684C3.70738 21.8585 3.67914 21.7397 3.6748 21.6189L3.17605 11.8239C3.4349 11.7054 3.66707 11.5358 3.85855 11.3251C4.08924 11.0729 4.25336 10.7671 4.33605 10.4354C4.41874 10.1037 4.41739 9.75668 4.33212 9.42567C4.24685 9.09465 4.08036 8.79013 3.84772 8.53969C3.61508 8.28924 3.32365 8.10079 2.9998 7.99138L2.85355 5.12638C2.84122 4.88708 2.92364 4.65256 3.08296 4.47359C3.24228 4.29461 3.46569 4.18559 3.7048 4.17013V4.17388Z" fill="#F2F2F2"/>
<path d="M5.76703 10.5H5.80453L6.74953 10.4512C6.94844 10.4408 7.13506 10.3518 7.26833 10.2037C7.4016 10.0557 7.4706 9.86077 7.46016 9.66185C7.44971 9.46294 7.36068 9.27632 7.21264 9.14306C7.06461 9.00979 6.86969 8.94079 6.67078 8.95123L5.72953 8.99998C5.53062 9.00495 5.34183 9.08874 5.20469 9.23291C5.06756 9.37708 4.99331 9.56982 4.99828 9.76873C5.00325 9.96764 5.08704 10.1564 5.23121 10.2936C5.37538 10.4307 5.56812 10.505 5.76703 10.5Z" fill="#F2F2F2"/>
</g>
<defs>
<clipPath id="clip0_3655_10107">
<rect width="24" height="24" fill="white"/>
</clipPath>
</defs>
</svg>
